<svg width="24" height="25" viewBox="0 0 24 25" fill="none" xmlns="http://www.w3.org/2000/svg">
<path fill-rule="evenodd" clip-rule="evenodd" d="M3 11.9342C3 11.6581 3.22386 11.4342 3.5 11.4342L19.5 11.4342C19.7761 11.4342 20 11.6581 20 11.9342C20 12.2103 19.7761 12.4342 19.5 12.4342L3.5 12.4342C3.22386 12.4342 3 12.2103 3 11.9342Z" fill="#333333"/>
<path fill-rule="evenodd" clip-rule="evenodd" d="M15.6464 8.08065C15.8417 7.88539 16.1583 7.88539 16.3536 8.08065L20.2071 11.9342L16.3536 15.7878C16.1583 15.983 15.8417 15.983 15.6464 15.7878C15.4512 15.5925 15.4512 15.2759 15.6464 15.0807L18.7929 11.9342L15.6464 8.78776C15.4512 8.5925 15.4512 8.27591 15.6464 8.08065Z" fill="#333333"/>
</svg>
