<svg width="218" height="132" viewBox="0 0 218 132" fill="none" xmlns="http://www.w3.org/2000/svg">
<path d="M140.301 66.5558L144.361 75.9236C145.111 77.6502 147.177 78.4669 148.979 77.7495C150.784 77.0395 151.64 75.0622 150.892 73.3347L146.834 63.97L140.301 66.5558Z" fill="#333333"/>
<path d="M143.009 72.8002L149.541 70.2141L143.009 72.8002Z" fill="#333333"/>
<path d="M131.736 46.7837L140.973 50.4409L131.736 46.7837Z" fill="#333333"/>
<path d="M136.763 27.7945C136.763 32.7725 132.543 36.8071 127.341 36.8071C122.133 36.8071 117.913 32.7725 117.913 27.7945C117.913 22.8174 122.133 18.7849 127.341 18.7849C132.542 18.7849 136.763 22.8174 136.763 27.7945Z" fill="#333333"/>
<path d="M132.049 27.7946C132.049 30.2851 129.941 32.3029 127.34 32.3029C124.735 32.3029 122.622 30.2851 122.622 27.7946C122.622 25.3061 124.735 23.2883 127.34 23.2883C129.941 23.2872 132.049 25.3061 132.049 27.7946Z" fill="#333333"/>
<path d="M120.729 34.2183L107.835 63.9709L104.603 77.3225L106.78 78.1848L114.369 66.5568L116.174 62.3954C114.766 59.1419 116.379 55.4117 119.782 54.0667L127.258 36.8041C124.715 36.7839 122.415 35.8019 120.729 34.2183Z" fill="#333333"/>
<path d="M133.945 34.2163C132.259 35.802 129.956 36.784 127.413 36.8033L138.503 62.3904L145.033 59.8057L133.945 34.2163Z" fill="#333333"/>
<path d="M130.872 14.2778V4.13806C130.871 2.2694 129.284 0.757812 127.338 0.757812C125.385 0.757812 123.803 2.26735 123.802 4.13806L123.803 14.2778H130.872Z" fill="#333333"/>
<path d="M127.34 18.7851C127.942 18.7851 128.532 18.843 129.104 18.9465V14.2788H125.57V18.9465C126.144 18.8419 126.731 18.7851 127.34 18.7851Z" fill="#333333"/>
<path d="M91.1953 48.6655C91.1953 49.5959 91.9859 50.3556 92.9593 50.3556C93.934 50.3556 94.7236 49.5959 94.7236 48.6655C94.7236 49.5959 95.5151 50.3556 96.4876 50.3556C97.4622 50.3556 98.2516 49.5959 98.2516 48.6655C98.2516 49.5959 97.4622 50.3556 96.4876 50.3556C95.5151 50.3556 94.7236 49.5959 94.7236 48.6655C94.7236 49.5959 93.934 50.3556 92.9593 50.3556C91.9859 50.3556 91.1953 49.5959 91.1953 48.6655Z" fill="#333333"/>
<path d="M162.864 15.4226C161.567 15.4226 160.512 16.434 160.512 17.6798V17.6788V65.0215L164.039 78.5476L167.567 65.0215V17.6778V17.6788C167.567 16.4351 166.513 15.4236 165.215 15.4236L162.864 15.4226Z" fill="#333333"/>
</svg>
